<svg xmlns="http://www.w3.org/2000/svg" viewBox="0 0 960 600" role="img" aria-labelledby="title desc">
  <title id="title">Gram Waste Tracker project preview</title>
  <desc id="desc">Stylized Android waste collection workflow dashboard with map and ticket cards.</desc>
  <defs>
    <linearGradient id="bg" x1="0" x2="1" y1="0" y2="1">
      <stop offset="0" stop-color="#0f1719"/>
      <stop offset=".5" stop-color="#1a2e2a"/>
      <stop offset="1" stop-color="#35e0c3"/>
    </linearGradient>
    <linearGradient id="panel" x1="0" x2="1" y1="0" y2="1">
      <stop offset="0" stop-color="#ffffff"/>
      <stop offset="1" stop-color="#e8f5f1"/>
    </linearGradient>
  </defs>
  <rect width="960" height="600" rx="28" fill="url(#bg)"/>
  <path d="M112 456h736v62H112z" fill="#071112" opacity=".28"/>
  <g transform="translate(120 96)">
    <rect width="720" height="380" rx="28" fill="#071112" opacity=".82"/>
    <rect x="24" y="24" width="672" height="332" rx="22" fill="url(#panel)"/>
    <rect x="54" y="58" width="160" height="236" rx="18" fill="#13211f"/>
    <rect x="82" y="88" width="104" height="12" rx="6" fill="#35e0c3"/>
    <rect x="82" y="126" width="84" height="10" rx="5" fill="#c5ddd6"/>
    <rect x="82" y="158" width="104" height="10" rx="5" fill="#c5ddd6"/>
    <rect x="82" y="190" width="72" height="10" rx="5" fill="#c5ddd6"/>
    <rect x="82" y="236" width="96" height="32" rx="9" fill="#f2ad5f"/>
    <rect x="250" y="58" width="420" height="236" rx="18" fill="#d8ebe4"/>
    <circle cx="340" cy="150" r="36" fill="#35e0c3" opacity=".35"/>
    <circle cx="420" cy="190" r="24" fill="#f2ad5f" opacity=".45"/>
    <path d="M300 220c40-30 80-20 120 10s80 30 120 0" fill="none" stroke="#0f766e" stroke-width="8" stroke-linecap="round"/>
    <rect x="250" y="310" width="178" height="72" rx="16" fill="#ffffff"/>
    <rect x="280" y="334" width="96" height="10" rx="5" fill="#0f766e"/>
    <rect x="280" y="354" width="118" height="8" rx="4" fill="#8aa09b"/>
    <rect x="456" y="310" width="178" height="72" rx="16" fill="#ffffff"/>
    <rect x="486" y="334" width="110" height="10" rx="5" fill="#d97706"/>
    <rect x="486" y="354" width="88" height="8" rx="4" fill="#8aa09b"/>
  </g>
</svg>
